<svg width="48" height="48" viewBox="0 0 48 48" fill="none" xmlns="http://www.w3.org/2000/svg">
  <path fill-rule="evenodd" clip-rule="evenodd" d="M24.1253 44.5715C14.1556 44.5715 6.32828 37.8958 4.56003 28.2188C4.52702 28.0382 4.46736 27.6738 4.46736 27.6738L14.3462 27.6739C14.3462 27.6739 14.4112 27.8922 14.4458 27.9995C15.9104 32.542 19.8886 34.8908 24.1253 34.8908C28.3691 34.8908 32.3535 32.5832 33.8122 28.007C33.8472 27.8973 33.9128 27.6738 33.9128 27.6738L43.7833 27.6738C43.7833 27.6738 43.7337 27.9784 43.7067 28.1296C41.9704 37.8547 34.1257 44.5715 24.1253 44.5715ZM24.1281 3.42871C34.556 3.42871 42.64 10.6657 43.8984 21.1177C43.9254 21.3424 43.97 21.7961 43.97 21.7961L34.2361 21.7961C34.2361 21.7961 34.194 21.5385 34.1704 21.4118C33.1389 15.8941 28.7899 13.1094 24.1281 13.1094C19.5195 13.1094 15.2168 15.8308 14.1225 21.2236C14.0844 21.4112 14.02 21.7961 14.02 21.7961L4.28613 21.7961C4.28613 21.7961 4.35064 21.1591 4.39225 20.845C5.75737 10.54 13.7911 3.42871 24.1281 3.42871Z" fill="#1D91ED"/>
  </svg>
  